<svg aria-hidden="true" focusable="false" data-prefix="fal" data-icon="chart-simple" class="svg-inline--fa fa-chart-simple" role="img" xmlns="http://www.w3.org/2000/svg" viewBox="0 0 448 512"><path fill="currentColor" d="M240 64c8.8 0 16 7.2 16 16V432c0 8.8-7.2 16-16 16H208c-8.8 0-16-7.2-16-16V80c0-8.8 7.2-16 16-16h32zM208 32c-26.5 0-48 21.5-48 48V432c0 26.5 21.5 48 48 48h32c26.5 0 48-21.5 48-48V80c0-26.5-21.5-48-48-48H208zM80 256c8.8 0 16 7.2 16 16V432c0 8.8-7.2 16-16 16H48c-8.8 0-16-7.2-16-16V272c0-8.8 7.2-16 16-16H80zM48 224c-26.5 0-48 21.5-48 48V432c0 26.5 21.5 48 48 48H80c26.5 0 48-21.5 48-48V272c0-26.5-21.5-48-48-48H48zm320-96h32c8.8 0 16 7.2 16 16V432c0 8.8-7.2 16-16 16H368c-8.8 0-16-7.2-16-16V144c0-8.8 7.2-16 16-16zm-48 16V432c0 26.5 21.5 48 48 48h32c26.5 0 48-21.5 48-48V144c0-26.5-21.5-48-48-48H368c-26.5 0-48 21.5-48 48z"></path></svg>