<svg aria-hidden="true" data-prefix="fal" data-icon="star" class="svg-inline--fa fa-star" xmlns="http://www.w3.org/2000/svg" viewBox="0 0 576 512"><path fill="currentColor" d="m226.5 168.8 61.4-126.5 61.4 126.5c4.6 9.5 13.6 16.1 24.1 17.7l137.4 20.3-99.8 98.8c-7.4 7.3-10.8 17.8-9 28.1l23.5 139.5L303 407.7c-9.4-5-20.7-5-30.2 0l-122.6 65.5 23.5-139.5c1.7-10.3-1.6-20.7-9-28.1L65 206.8l137.4-20.3c10.5-1.5 19.5-8.2 24.1-17.7zm198.4 340.3c8.1 4.3 17.9 3.7 25.3-1.7s11.2-14.5 9.7-23.5l-26.3-155.5 111.2-110.2c6.5-6.4 8.7-15.9 5.9-24.5s-10.3-14.9-19.3-16.3l-153.3-22.6-68.6-141.3C305.5 5.2 297.1 0 287.9 0s-17.6 5.2-21.6 13.5l-68.6 141.3-153.2 22.7c-9 1.3-16.5 7.6-19.3 16.3s-.5 18.1 5.9 24.5l111.1 110.1L116 483.9c-1.5 9 2.2 18.1 9.7 23.5s17.3 6 25.3 1.7l137-73.2 137 73.2z"/></svg>